<?xml version="1.0" standalone="no"?>
<!DOCTYPE svg PUBLIC "-//W3C//DTD SVG 20010904//EN"
 "http://www.w3.org/TR/2001/REC-SVG-20010904/DTD/svg10.dtd">
<svg version="1.0" xmlns="http://www.w3.org/2000/svg"
 width="1080.000000pt" height="1080.000000pt" viewBox="0 0 1080.000000 1080.000000"
 preserveAspectRatio="xMidYMid meet">

<g transform="translate(0.000000,1080.000000) scale(0.100000,-0.100000)"
fill="#000000" stroke="none">
<path d="M0 5400 l0 -5400 5400 0 5400 0 0 5400 0 5400 -5400 0 -5400 0 0
-5400z m5724 4585 c277 -27 467 -60 724 -126 1569 -403 2816 -1650 3222 -3221
50 -194 84 -372 112 -585 20 -149 22 -211 22 -553 0 -417 -10 -543 -70 -853
-213 -1109 -832 -2091 -1744 -2769 -588 -437 -1286 -726 -2007 -833 -414 -61
-932 -61 -1346 0 -1457 215 -2729 1149 -3377 2480 -220 454 -352 898 -422
1422 -20 149 -22 211 -22 553 0 417 10 543 70 853 266 1383 1165 2563 2429
3186 504 249 998 389 1570 446 186 18 646 18 839 0z"/>
<path d="M5097 9789 c-589 -28 -1171 -181 -1701 -446 -186 -93 -268 -141 -461
-269 -480 -318 -881 -719 -1199 -1199 -128 -193 -176 -275 -269 -461 -270
-540 -421 -1123 -446 -1727 -31 -738 120 -1450 446 -2101 93 -186 141 -268
269 -461 318 -480 719 -881 1199 -1199 319 -212 607 -356 960 -481 699 -248
1521 -305 2261 -155 773 155 1462 508 2066 1056 235 214 473 493 662 779 128
193 176 275 269 461 327 653 476 1359 446 2108 -25 595 -176 1181 -446 1720
-93 186 -141 268 -269 461 -318 480 -719 881 -1199 1199 -193 128 -275 176
-461 269 -430 215 -890 356 -1368 417 -121 15 -565 45 -586 38 -3 0 -80 -5
-173 -9z m-1752 -3724 c104 -27 265 -117 265 -148 0 -7 -19 -34 -42 -61 l-43
-48 -68 46 c-90 61 -159 81 -272 81 -93 -1 -135 -15 -191 -63 -46 -40 -60
-111 -31 -156 10 -14 17 -28 17 -31 0 -3 -43 -5 -95 -5 l-94 0 -7 36 c-28 151
99 310 283 353 62 15 214 12 278 -4z m1022 0 c104 -24 282 -126 271 -154 -5
-15 -88 -101 -96 -101 -5 0 -19 11 -31 24 -29 31 -143 83 -210 96 -75 14 -129
13 -189 -5 -66 -20 -106 -55 -127 -110 -17 -44 -16 -52 10 -117 7 -16 -1 -18
-88 -18 l-96 0 -7 37 c-10 54 10 137 48 196 38 59 123 118 212 147 75 23 215
26 303 5z m3187 0 c91 -24 189 -81 256 -148 33 -34 60 -63 60 -66 0 -4 -10
-11 -23 -16 -12 -6 -41 -22 -64 -35 l-42 -23 -51 47 c-135 127 -319 149 -493
59 -70 -36 -145 -109 -175 -170 l-16 -33 -84 0 -84 0 7 27 c13 53 85 161 142
213 62 57 181 120 273 144 73 20 221 20 294 1z m-4934 -75 l0 -70 -310 0 -310
0 0 -120 0 -120 -75 0 -75 0 0 190 0 190 385 0 385 0 0 -70z m2960 0 l0 -70
-310 0 -310 0 0 -120 0 -120 -80 0 -80 0 0 190 0 190 390 0 390 0 0 -70z m425
-111 c77 -100 142 -186 143 -190 2 -5 -41 -9 -95 -9 -97 0 -99 1 -116 28 -9
15 -30 43 -47 62 l-30 34 0 -62 0 -62 -75 0 -75 0 0 190 0 190 78 0 78 0 139
-181z m685 -9 l0 -190 -80 0 -80 0 0 190 0 190 80 0 80 0 0 -190z m2090 120
l0 -70 -310 0 -310 0 0 -120 0 -120 -80 0 -80 0 0 190 0 190 390 0 390 0 0
-70z m-2 -487 l-3 -68 -3462 -3 -3463 -2 0 70 0 70 3465 0 3466 0 -3 -67z
m-6778 -303 l0 -130 310 0 310 0 0 -70 0 -70 -385 0 -385 0 0 200 0 200 75 0
75 0 0 -130z m1635 40 c-1 -128 -50 -208 -163 -268 -83 -44 -161 -62 -272 -62
-154 0 -315 55 -413 141 l-51 46 31 34 c17 19 41 45 52 59 l20 25 43 -41 c144
-139 414 -166 539 -56 42 38 43 40 43 103 1 35 -3 74 -7 87 l-9 23 94 -3 93
-3 0 -85z m1025 17 c0 -41 -6 -95 -14 -120 -66 -220 -445 -299 -732 -154 -38
20 -87 53 -108 76 l-39 40 44 53 c23 29 44 55 46 57 1 2 20 -12 42 -32 48 -43
146 -95 216 -113 105 -28 237 -12 311 38 62 42 90 132 60 190 -8 15 -12 29 -8
32 3 3 45 6 94 6 l88 0 0 -73z m300 -57 l0 -130 310 0 310 0 0 -70 0 -70 -390
0 -390 0 0 200 0 200 80 0 80 0 0 -130z m900 -70 l0 -200 -75 0 -75 0 0 200 0
200 75 0 75 0 0 -200z m620 137 l45 -62 3 63 3 62 79 0 80 0 0 -200 0 -200
-79 0 -79 0 -118 156 c-167 220 -173 228 -174 237 0 4 44 7 98 6 l97 0 45 -62z
m538 21 c67 -146 254 -249 425 -235 88 8 186 52 249 114 l47 46 63 -33 c35
-18 65 -35 67 -37 3 -2 -24 -33 -60 -69 -107 -110 -240 -164 -399 -164 -219 0
-426 114 -527 291 -23 41 -45 86 -48 102 l-7 27 85 0 86 0 19 -42z m1142 -88
l0 -130 310 0 310 0 0 -70 0 -70 -390 0 -390 0 0 200 0 200 80 0 80 0 0 -130z"/>
</g>
</svg>
